# xmcd
#
# Track frame offsets:
#	150
#	21717
#	35551
#	50187
#	65717
#	78813
#	102201
#	119119
#	130162
#	143138
#	158243
#	175165
#	190440
#	208850
#	238586
#	256392
#	275968
#	303378
#	317906
#
# Disc length: 4453 seconds
# Revision: 0
# Processed by: cddbd v1.5.2PL0 Copyright (c) Steve Scherf et al.
# Submitted via: dBpowerAMP V12.0
#
DISCID=2e116313
DTITLE=Various Artist - Greatest Ever! 70s Groove
DYEAR=1900
DGENRE=Soul
TTITLE0=Barry White - Never, Never Gonna Give You Up
TTITLE1=Kool And The Gang - Jungle Boogie
TTITLE2=The Staple Singers - I'll Take You There
TTITLE3=The Commodores - Brick House
TTITLE4=The Jackson 5 - ABC
TTITLE5=Gil Scott Heron and Brian Jackson - The Bottle
TTITLE6=Brass Construction - Movin'
TTITLE7=Jean Knight - Mr Big Stuff
TTITLE8=The Pazant Brothers - A Gritty Nitty
TTITLE9=Donna Summer - Love To Love You Baby
TTITLE10=Amii Stewart - Knock On Wood
TTITLE11=Shalamar - Take That To The Bank
TTITLE12=The Persuaders - Trying Girls Out
TTITLE13=Bob James - Feel Like Makin' Love
TTITLE14=Smokey Robinson - Everybody Loves The Sunshine
TTITLE15=Lonnie Liston Smith - Cruisin'
TTITLE16=People's Choice - Expansions
TTITLE17=A Taste Of Honey - Do It Any Way You Wanna
TTITLE18=Boogie Oogie Oogie
EXTD=
EXTT0=
EXTT1=
EXTT2=
EXTT3=
EXTT4=
EXTT5=
EXTT6=
EXTT7=
EXTT8=
EXTT9=
EXTT10=
EXTT11=
EXTT12=
EXTT13=
EXTT14=
EXTT15=
EXTT16=
EXTT17=
EXTT18=
PLAYORDER=
